<svg width="40mm" height="30mm" viewBox="0 0 40 30" xmlns="http://www.w3.org/2000/svg"><defs><clipPath clipPathUnits="userSpaceOnUse" id="a"><path style="fill:none;stroke:#000;stroke-width:.499999;stroke-dasharray:none;stroke-opacity:1" d="M32.107 30.238h40v30h-40z"/></clipPath><clipPath clipPathUnits="userSpaceOnUse" id="b"><path style="fill:none;stroke:#000;stroke-width:.499999;stroke-dasharray:none;stroke-opacity:1" d="M32.107-1.762h40v30h-40z"/></clipPath><clipPath clipPathUnits="userSpaceOnUse" id="c"><path style="fill:none;stroke:#000;stroke-width:.499999;stroke-dasharray:none;stroke-opacity:1" d="M32.245 26.75h40v30h-40z"/></clipPath></defs><g transform="translate(-32.107 -30.238)" clip-path="url(#a)"><path style="fill:none;stroke:#d7ceff;stroke-width:.5;stroke-dasharray:none;stroke-opacity:1" d="M30.746 25.753h8v8h-8zM38.746 25.753h8v8h-8zM46.746 25.753h8v8h-8zM54.746 25.753h8v8h-8zM62.746 25.753h8v8h-8zM30.746 33.753h8v8h-8zM38.746 33.753h8v8h-8zM46.746 33.753h8v8h-8zM54.746 33.753h8v8h-8zM62.746 33.753h8v8h-8zM30.746 41.753h8v8h-8zM38.746 41.753h8v8h-8zM46.746 41.753h8v8h-8zM54.746 41.753h8v8h-8zM62.746 41.753h8v8h-8z"/><path style="fill:none;stroke:#d7ceff;stroke-width:.5;stroke-dasharray:none;stroke-opacity:1" d="M70.746 25.753h8v8h-8zM70.746 33.753h8v8h-8zM70.746 41.753h8v8h-8zM30.746 49.753h8v8h-8zM38.746 49.753h8v8h-8zM46.746 49.753h8v8h-8zM54.746 49.753h8v8h-8zM62.746 49.753h8v8h-8z"/><path style="fill:none;stroke:#d7ceff;stroke-width:.5;stroke-dasharray:none;stroke-opacity:1" d="M70.746 49.753h8v8h-8z"/></g><g transform="translate(-32.107 1.762)" clip-path="url(#b)"><path style="fill:none;stroke:#d7ceff;stroke-width:.5;stroke-dasharray:none;stroke-opacity:1" d="M30.746 25.753h8v8h-8zM38.746 25.753h8v8h-8zM46.746 25.753h8v8h-8zM54.746 25.753h8v8h-8zM62.746 25.753h8v8h-8zM30.746 33.753h8v8h-8zM38.746 33.753h8v8h-8zM46.746 33.753h8v8h-8zM54.746 33.753h8v8h-8zM62.746 33.753h8v8h-8zM30.746 41.753h8v8h-8zM38.746 41.753h8v8h-8zM46.746 41.753h8v8h-8zM54.746 41.753h8v8h-8zM62.746 41.753h8v8h-8z"/><path style="fill:none;stroke:#d7ceff;stroke-width:.5;stroke-dasharray:none;stroke-opacity:1" d="M70.746 25.753h8v8h-8zM70.746 33.753h8v8h-8zM70.746 41.753h8v8h-8zM30.746 49.753h8v8h-8zM38.746 49.753h8v8h-8zM46.746 49.753h8v8h-8zM54.746 49.753h8v8h-8zM62.746 49.753h8v8h-8z"/><path style="fill:none;stroke:#d7ceff;stroke-width:.5;stroke-dasharray:none;stroke-opacity:1" d="M70.746 49.753h8v8h-8z"/></g><path style="fill:none;stroke:#897eb8;stroke-width:2;stroke-dasharray:none;stroke-opacity:1" d="M.295 19.516h39.773H14.64V-.014v30.01"/><path style="fill:none;stroke:#2e2a3d;stroke-width:2;stroke-dasharray:none;stroke-opacity:1" d="M32.068 74.536c1.236-11.183 2.016-35.694 12.007-35.694 7.565 0 8.032 11.965 16.015 11.965 10.72 0 10.223-31.332 11.143-37.723" clip-path="url(#c)" transform="translate(-32.245 -26.75)"/><path style="fill:none;stroke:#000;stroke-width:.5;stroke-dasharray:none;stroke-opacity:1" d="M0 0h40v30H0z"/></svg>